# xmcd
#
# Track frame offsets:
#	150
#	22568
#	37740
#	55678
#	74600
#	88496
#	108270
#	123163
#	139342
#	158228
#	175114
#	205228
#	230264
#	251493
#	266334
#	295737
#	317448
#	333004
#
# Disc length: 4691 seconds
#
# Revision: 0
# Processed by: cddbd v1.5.2PL0 Copyright (c) Steve Scherf et al.
# Submitted via: audiograbber 1.83.01
#
DISCID=ea125112
DTITLE=Hoochie Coochie Blues Band - Looking Back
DYEAR=2003
DGENRE=Blues
TTITLE0=Hey Everybody
TTITLE1=Downyard Boogie
TTITLE2=Let the good times roll
TTITLE3=Boogie with a funky beat
TTITLE4=Going down to the river
TTITLE5=Easy Rollin´g mama
TTITLE6=Icecream man
TTITLE7=Hands to yourself
TTITLE8=Diamonds around your feet
TTITLE9=Is you is ir is you ain´t my baby
TTITLE10=A funeral and a trial
TTITLE11=One kick too much
TTITLE12=My kind of babe
TTITLE13=Hands up
TTITLE14=Falling Rain
TTITLE15=Boogie Woogie girl
TTITLE16=Come back to me babe
TTITLE17=21th Century man
EXTD=
EXTT0=
EXTT1=
EXTT2=
EXTT3=
EXTT4=
EXTT5=
EXTT6=
EXTT7=
EXTT8=
EXTT9=
EXTT10=
EXTT11=
EXTT12=
EXTT13=
EXTT14=
EXTT15=
EXTT16=
EXTT17=
PLAYORDER=
